<svg width="194" height="24" viewBox="0 0 194 24" fill="none" xmlns="http://www.w3.org/2000/svg">
<g clip-path="url(#clip0_1_19326)">
<path d="M23.6853 -5.09492e-06C25.3648 -0.0301985 26.7877 0.539702 27.9615 1.71347C29.105 2.85705 29.6749 4.2384 29.6749 5.86129V23.9924H24.7723V5.99716C24.7723 5.83865 24.7308 5.68768 24.6515 5.55181C24.5722 5.41594 24.4628 5.30649 24.3269 5.22723C24.1911 5.14797 24.0401 5.10646 23.8816 5.10646C23.4249 5.10646 23.1267 5.32536 22.9909 5.75562L18.4996 21.4185C18.2694 22.1733 17.8429 22.7885 17.2126 23.2678C16.5823 23.7471 15.869 23.9887 15.0689 23.9887C14.2687 23.9887 13.5554 23.7471 12.9251 23.2678C12.2948 22.7885 11.8684 22.1695 11.6381 21.4185L7.15819 5.75939C7.02232 5.32536 6.73548 5.11023 6.30145 5.11023C6.04858 5.11023 5.83345 5.19704 5.64852 5.36688C5.46358 5.53671 5.373 5.74807 5.373 6.00094V23.9962H0.474121V5.91413C0.474121 4.55165 0.896829 3.20427 1.77621 2.1626C2.9915 0.720863 4.51249 -5.09492e-06 6.33542 -5.09492e-06C7.20348 -5.09492e-06 8.0187 0.177381 8.78486 0.532154C9.55102 0.886927 10.2115 1.38512 10.7739 2.02295C11.3324 2.66456 11.7287 3.39298 11.9552 4.21575L15.0726 14.874L18.1901 4.21575C18.5977 2.81176 19.428 1.7097 20.6735 0.902023C21.5718 0.328348 22.6248 0.02264 23.6853 -5.09492e-06Z" fill="#175CFF"/>
<path d="M46.6701 0H54.8374V4.93663H46.9531C46.5191 4.93663 46.0964 5.02343 45.685 5.19327C45.2736 5.36311 44.9188 5.6122 44.6207 5.92923C44.3225 6.25004 44.0961 6.62746 43.9338 7.06149L37.8649 23.9925H32.9283L39.8841 4.66111C40.4049 3.14389 41.3598 1.94748 42.7487 1.06432C43.9187 0.328353 45.2925 0 46.6701 0ZM49.9008 9.94119C49.9008 8.89196 50.3348 8.0541 51.2028 7.43891L54.8374 4.93663V23.9925H49.9008V9.94119Z" fill="#175CFF"/>
<path d="M75.2632 0C77.2485 0 78.9544 0.709546 80.3697 2.12486C81.785 3.54018 82.4946 5.24233 82.4946 7.23133C82.4946 9.22032 81.785 10.9225 80.3697 12.3378C78.9544 13.7569 77.2522 14.4627 75.2632 14.4627H65.2541V23.9925H60.3175V0H75.2632ZM75.3991 9.5298C76.086 9.5298 76.6597 9.26561 77.1239 8.741C77.4258 8.39755 77.6221 7.96352 77.6787 7.51061C77.7429 6.97846 77.6447 6.49536 77.3881 6.05001C77.1805 5.69524 76.9012 5.41595 76.5465 5.21214C76.1917 5.00456 75.8105 4.90266 75.3991 4.90266H65.2541V14.4325L67.6205 11.0055C68.3074 10.0242 69.2434 9.53357 70.4323 9.53357H75.4029L75.3991 9.5298Z" fill="#175CFF"/>
<path d="M89.8278 9.12218V0.158508H91.3488L94.2436 7.29548L97.1384 0.158508H98.682V9.12218H97.161V6.36326C97.161 4.5592 97.161 4.03459 97.2478 3.39675L94.9682 9.12218H93.5227L91.2544 3.40808C91.3412 3.94778 91.3526 4.7932 91.3526 5.91036V9.12218H89.8316H89.8278Z" fill="#141460"/>
<path d="M100.09 6.09529C100.09 4.19311 101.328 2.88347 103.105 2.88347C104.883 2.88347 106.072 4.09875 106.072 5.98584V6.43874L101.509 6.45007C101.618 7.51816 102.184 8.05787 103.177 8.05787C104 8.05787 104.54 7.74084 104.709 7.16339H106.094C105.838 8.48812 104.732 9.28448 103.151 9.28448C101.347 9.28448 100.086 7.97106 100.086 6.09529H100.09ZM101.55 5.4952H104.592C104.592 4.66111 104.015 4.11008 103.12 4.11008C102.226 4.11008 101.698 4.5894 101.55 5.4952Z" fill="#141460"/>
<path d="M106.921 6.11794C106.921 4.23085 108.023 2.8797 109.85 2.8797C110.695 2.8797 111.443 3.23447 111.824 3.83457V0H113.307V9.12219H111.933L111.835 8.17864C111.469 8.87687 110.684 9.2807 109.763 9.2807C108.008 9.2807 106.917 7.99371 106.917 6.11794H106.921ZM111.812 6.06888C111.812 4.97814 111.137 4.21576 110.095 4.21576C109.053 4.21576 108.416 4.98946 108.416 6.06888C108.416 7.14829 109.053 7.9069 110.095 7.9069C111.137 7.9069 111.812 7.15962 111.812 6.06888Z" fill="#141460"/>
<path d="M114.696 0.943537C114.696 0.441572 115.1 0.049057 115.617 0.049057C116.134 0.049057 116.511 0.441572 116.511 0.943537C116.511 1.4455 116.107 1.84934 115.617 1.84934C115.103 1.84934 114.696 1.4455 114.696 0.943537ZM114.866 3.06463H116.36V9.12218H114.866V3.06463Z" fill="#141460"/>
<path d="M120.584 2.88347C122.24 2.88347 123.369 3.80437 123.527 5.2612H122.033C121.863 4.5743 121.357 4.21953 120.648 4.21953C119.693 4.21953 119.055 4.94417 119.055 6.08397C119.055 7.22377 119.644 7.93709 120.599 7.93709C121.346 7.93709 121.874 7.571 122.033 6.90674H123.543C123.358 8.31829 122.18 9.28448 120.599 9.28448C118.761 9.28448 117.557 8.0088 117.557 6.08397C117.557 4.15914 118.795 2.88347 120.584 2.88347Z" fill="#141460"/>
<path d="M124.384 7.39362C124.384 6.27646 125.192 5.57824 126.63 5.46879L128.445 5.33292V5.19705C128.445 4.37427 127.955 4.04592 127.196 4.04592C126.313 4.04592 125.822 4.41202 125.822 5.04985H124.546C124.546 3.73644 125.626 2.8797 127.268 2.8797C128.909 2.8797 129.906 3.76286 129.906 5.44237V9.12219H128.592L128.483 8.22771C128.226 8.85422 127.404 9.28071 126.46 9.28071C125.173 9.28071 124.388 8.53342 124.388 7.39362H124.384ZM128.453 6.66897V6.35194L127.188 6.45007C126.256 6.53688 125.901 6.84259 125.901 7.33323C125.901 7.88426 126.267 8.156 126.943 8.156C127.864 8.156 128.453 7.60497 128.453 6.67275V6.66897Z" fill="#141460"/>
<path d="M131.397 9.12219V0H132.88V9.12219H131.397Z" fill="#141460"/>
<path d="M137.126 9.12218L140.36 0.158508H141.968L145.206 9.12218H143.549L142.825 7.05016H139.477L138.752 9.12218H137.122H137.126ZM139.945 5.72542H142.372L141.342 2.83063C141.27 2.59663 141.183 2.32866 141.157 2.14373C141.119 2.31356 141.047 2.5853 140.96 2.83063L139.941 5.72542H139.945Z" fill="#141460"/>
<path d="M145.489 6.11794C145.489 4.23085 146.591 2.8797 148.418 2.8797C149.264 2.8797 150.011 3.23447 150.392 3.83457V0H151.875V9.12219H150.501L150.403 8.17864C150.037 8.87687 149.252 9.2807 148.331 9.2807C146.576 9.2807 145.486 7.99371 145.486 6.11794H145.489ZM150.381 6.06888C150.381 4.97814 149.705 4.21576 148.663 4.21576C147.622 4.21576 146.984 4.98946 146.984 6.06888C146.984 7.14829 147.622 7.9069 148.663 7.9069C149.705 7.9069 150.381 7.15962 150.381 6.06888Z" fill="#141460"/>
<path d="M152.747 3.06464H154.34L155.393 5.84998C155.649 6.57462 155.857 7.19736 155.933 7.52949C156.019 7.1483 156.238 6.51046 156.495 5.84998L157.597 3.06464H159.141L156.616 9.12219H155.144L152.74 3.06464H152.747Z" fill="#141460"/>
<path d="M159.443 7.39362C159.443 6.27646 160.25 5.57824 161.688 5.46879L163.504 5.33292V5.19705C163.504 4.37427 163.013 4.04592 162.254 4.04592C161.371 4.04592 160.88 4.41202 160.88 5.04985H159.605C159.605 3.73644 160.684 2.8797 162.326 2.8797C163.968 2.8797 164.964 3.76286 164.964 5.44237V9.12219H163.651L163.541 8.22771C163.285 8.85422 162.462 9.28071 161.518 9.28071C160.231 9.28071 159.446 8.53342 159.446 7.39362H159.443ZM163.515 6.66897V6.35194L162.25 6.45007C161.318 6.53688 160.963 6.84259 160.963 7.33323C160.963 7.88426 161.33 8.156 162.005 8.156C162.926 8.156 163.515 7.60497 163.515 6.67275V6.66897Z" fill="#141460"/>
<path d="M166.432 9.12219V3.06463H167.817L167.938 3.84966C168.319 3.23825 169.055 2.8797 169.874 2.8797C171.395 2.8797 172.18 3.82324 172.18 5.3933V9.12219H170.686V5.75185C170.686 4.73282 170.184 4.24218 169.41 4.24218C168.489 4.24218 167.927 4.88001 167.927 5.8613V9.12219H166.432Z" fill="#141460"/>
<path d="M176.328 2.88347C177.985 2.88347 179.114 3.80437 179.272 5.2612H177.777C177.608 4.5743 177.102 4.21953 176.392 4.21953C175.437 4.21953 174.8 4.94417 174.8 6.08397C174.8 7.22377 175.388 7.93709 176.343 7.93709C177.091 7.93709 177.619 7.571 177.777 6.90674H179.287C179.102 8.31829 177.925 9.28448 176.343 9.28448C174.505 9.28448 173.301 8.0088 173.301 6.08397C173.301 4.15914 174.539 2.88347 176.328 2.88347Z" fill="#141460"/>
<path d="M180.046 6.09529C180.046 4.19311 181.284 2.88347 183.061 2.88347C184.839 2.88347 186.028 4.09875 186.028 5.98584V6.43874L181.465 6.45007C181.574 7.51816 182.14 8.05787 183.133 8.05787C183.956 8.05787 184.495 7.74084 184.665 7.16339H186.05C185.794 8.48812 184.688 9.28448 183.107 9.28448C181.303 9.28448 180.042 7.97106 180.042 6.09529H180.046ZM181.503 5.4952H184.545C184.545 4.66111 183.967 4.11008 183.073 4.11008C182.178 4.11008 181.65 4.5894 181.503 5.4952Z" fill="#141460"/>
<path d="M186.873 6.11794C186.873 4.23085 187.975 2.8797 189.802 2.8797C190.647 2.8797 191.395 3.23447 191.776 3.83457V0H193.259V9.12219H191.885L191.787 8.17864C191.421 8.87687 190.636 9.2807 189.715 9.2807C187.96 9.2807 186.869 7.99371 186.869 6.11794H186.873ZM191.768 6.06888C191.768 4.97814 191.093 4.21576 190.051 4.21576C189.009 4.21576 188.372 4.98946 188.372 6.06888C188.372 7.14829 189.009 7.9069 190.051 7.9069C191.093 7.9069 191.768 7.15962 191.768 6.06888Z" fill="#141460"/>
<path d="M91.3978 20.7504V23.8415H89.8278V14.8778H93.3717C95.1758 14.8778 96.3382 16.0554 96.3382 17.8066C96.3382 19.5578 95.1607 20.7504 93.3717 20.7504H91.3978ZM91.3978 16.2743V19.3502H93.0396C94.119 19.3502 94.6965 18.7728 94.6965 17.7915C94.6965 16.8102 94.1077 16.2705 93.066 16.2705H91.3978V16.2743Z" fill="#141460"/>
<path d="M97.4667 23.8377V14.7155H98.95V23.8377H97.4667Z" fill="#141460"/>
<path d="M100.252 22.1091C100.252 20.992 101.06 20.2938 102.498 20.1843L104.313 20.0484V19.9126C104.313 19.0898 103.822 18.7614 103.064 18.7614C102.181 18.7614 101.69 19.1275 101.69 19.7654H100.414C100.414 18.452 101.494 17.5952 103.136 17.5952C104.777 17.5952 105.774 18.4784 105.774 20.1579V23.8377H104.46L104.351 22.9432C104.094 23.5697 103.271 23.9962 102.328 23.9962C101.041 23.9962 100.256 23.2489 100.256 22.1091H100.252ZM104.321 21.3845V21.0675L103.056 21.1656C102.124 21.2524 101.769 21.5581 101.769 22.0487C101.769 22.5998 102.135 22.8715 102.811 22.8715C103.732 22.8715 104.321 22.3205 104.321 21.3883V21.3845Z" fill="#141460"/>
<path d="M107.717 23.8377V19.0294H106.551V17.7802H107.717V15.8931H109.212V17.7802H110.39V19.0294H109.212V23.8377H107.717Z" fill="#141460"/>
<path d="M111.763 17.7802V17.0442C111.763 15.4024 112.635 14.7155 113.945 14.7155C114.179 14.7155 114.458 14.7268 114.718 14.7759V16.0516H114.19C113.431 16.0516 113.247 16.4441 113.247 17.0442V17.7802H114.692V19.0294H113.247V23.8377H111.763V19.0294H110.891V17.7802H111.763Z" fill="#141460"/>
<path d="M118.349 17.6103C120.225 17.6103 121.587 18.9086 121.587 20.7995C121.587 22.6904 120.225 23.9887 118.349 23.9887C116.473 23.9887 115.111 22.6904 115.111 20.7995C115.111 18.9086 116.473 17.6103 118.349 17.6103ZM118.349 22.6488C119.38 22.6488 120.089 21.9016 120.089 20.7957C120.089 19.6899 119.38 18.9426 118.349 18.9426C117.319 18.9426 116.609 19.6899 116.609 20.7957C116.609 21.9016 117.319 22.6488 118.349 22.6488Z" fill="#141460"/>
<path d="M126.577 19.1426H126.026C124.947 19.1426 124.271 19.7201 124.271 20.8976V23.8415H122.776V17.7953H124.188L124.275 18.6784C124.531 18.0783 125.109 17.6745 125.916 17.6745C126.124 17.6745 126.332 17.6971 126.577 17.7613V19.1464V19.1426Z" fill="#141460"/>
<path d="M127.596 23.8377V17.7802H128.97L129.091 18.4897C129.396 17.9877 130.011 17.5952 130.88 17.5952C131.8 17.5952 132.438 18.0481 132.755 18.7463C133.061 18.0481 133.774 17.5952 134.691 17.5952C136.163 17.5952 136.971 18.4784 136.971 19.8748V23.8339H135.488V20.2673C135.488 19.3955 135.024 18.9426 134.31 18.9426C133.597 18.9426 133.035 19.4068 133.035 20.4032V23.8377H131.54V20.256C131.54 19.4106 131.087 18.9577 130.374 18.9577C129.66 18.9577 129.087 19.4219 129.087 20.4032V23.8377H127.592H127.596Z" fill="#141460"/>
</g>
<defs>
<clipPath id="clip0_1_19326">
<rect width="192.789" height="24" fill="white" transform="translate(0.474121)"/>
</clipPath>
</defs>
</svg>
