<svg width="27" height="26" viewBox="0 0 27 26" fill="none" xmlns="http://www.w3.org/2000/svg">
<path fill-rule="evenodd" clip-rule="evenodd" d="M14.5767 3.3125C14.5767 2.71803 14.0947 2.23611 13.5003 2.23611C12.9058 2.23611 12.4239 2.71803 12.4239 3.3125V3.92698C8.77264 4.44909 5.96555 7.58817 5.96555 11.3842L5.96555 15.6902C5.96555 15.6902 5.96556 15.6901 5.96555 15.6902C5.96544 15.6923 5.96471 15.7067 5.96004 15.735C5.95444 15.7689 5.94449 15.815 5.92807 15.8743C5.89478 15.9945 5.8418 16.1442 5.76778 16.3212C5.61939 16.676 5.41018 17.0845 5.1788 17.4967C4.74379 18.2716 4.52451 19.1951 4.68913 20.0732C4.86273 20.9993 5.45883 21.8069 6.4769 22.1945C7.38635 22.5408 8.59692 22.8575 10.1956 23.046C10.2336 23.0789 10.2786 23.1167 10.3303 23.158C10.4921 23.2874 10.7232 23.4552 11.0153 23.6221C11.595 23.9533 12.4521 24.3021 13.5003 24.3021C14.5484 24.3021 15.4056 23.9533 15.9853 23.6221C16.2774 23.4552 16.5085 23.2874 16.6702 23.158C16.7219 23.1167 16.7669 23.0789 16.8049 23.046C18.4036 22.8575 19.6142 22.5408 20.5236 22.1945C21.5417 21.8069 22.1378 20.9993 22.3114 20.0732C22.476 19.1951 22.2568 18.2716 21.8217 17.4967C21.5904 17.0845 21.3811 16.676 21.2328 16.3212C21.1587 16.1442 21.1058 15.9945 21.0725 15.8743C21.056 15.815 21.0461 15.7689 21.0405 15.735C21.0358 15.7067 21.0351 15.6925 21.035 15.6905C21.035 15.6903 21.035 15.6905 21.035 15.6905L21.035 15.6814V11.3848C21.035 7.58878 18.228 4.44918 14.5767 3.92699V3.3125ZM8.11832 11.3842C8.11832 8.41213 10.5276 6.00348 13.5003 6.00348C16.4728 6.00348 18.8822 8.41253 18.8822 11.3848V15.691C18.8822 16.1893 19.0689 16.7267 19.2467 17.1518C19.4398 17.6135 19.6928 18.1021 19.9445 18.5505C20.1893 18.9865 20.2476 19.3985 20.1955 19.6766C20.1523 19.9067 20.0373 20.0762 19.7576 20.1827C18.6006 20.6232 16.6476 21.0729 13.5003 21.0729C10.353 21.0729 8.39991 20.6232 7.24295 20.1827C6.96324 20.0762 6.8482 19.9067 6.80505 19.6766C6.75292 19.3985 6.81128 18.9865 7.05603 18.5505C7.30773 18.1021 7.56079 17.6135 7.75388 17.1518C7.93162 16.7267 8.11832 16.1893 8.11832 15.691V11.3842Z" fill="#667185"/>
</svg>
