<svg width="20" height="20" viewBox="0 0 20 20" fill="none" xmlns="http://www.w3.org/2000/svg">
<path d="M7.91665 5.83333C7.91665 6.29357 7.54355 6.66667 7.08331 6.66667H6.24998C5.78974 6.66667 5.41665 6.29357 5.41665 5.83333C5.41665 5.3731 5.78974 5 6.24998 5H7.08331C7.54355 5 7.91665 5.3731 7.91665 5.83333Z" fill="#98A2B3"/>
<path d="M10.4166 9.16667C10.8769 9.16667 11.25 8.79357 11.25 8.33333C11.25 7.8731 10.8769 7.5 10.4166 7.5H9.58331C9.12308 7.5 8.74998 7.8731 8.74998 8.33333C8.74998 8.79357 9.12308 9.16667 9.58331 9.16667H10.4166Z" fill="#98A2B3"/>
<path d="M7.91665 10.8333C7.91665 11.2936 7.54355 11.6667 7.08331 11.6667H6.24998C5.78974 11.6667 5.41665 11.2936 5.41665 10.8333C5.41665 10.3731 5.78974 10 6.24998 10H7.08331C7.54355 10 7.91665 10.3731 7.91665 10.8333Z" fill="#98A2B3"/>
<path d="M10.4166 6.66667C10.8769 6.66667 11.25 6.29357 11.25 5.83333C11.25 5.3731 10.8769 5 10.4166 5H9.58331C9.12308 5 8.74998 5.3731 8.74998 5.83333C8.74998 6.29357 9.12308 6.66667 9.58331 6.66667H10.4166Z" fill="#98A2B3"/>
<path d="M7.91665 8.33333C7.91665 8.79357 7.54355 9.16667 7.08331 9.16667H6.24998C5.78974 9.16667 5.41665 8.79357 5.41665 8.33333C5.41665 7.8731 5.78974 7.5 6.24998 7.5H7.08331C7.54355 7.5 7.91665 7.8731 7.91665 8.33333Z" fill="#98A2B3"/>
<path d="M10.4166 11.6667C10.8769 11.6667 11.25 11.2936 11.25 10.8333C11.25 10.3731 10.8769 10 10.4166 10H9.58331C9.12308 10 8.74998 10.3731 8.74998 10.8333C8.74998 11.2936 9.12308 11.6667 9.58331 11.6667H10.4166Z" fill="#98A2B3"/>
<path d="M7.91665 13.3333C7.91665 13.7936 7.54355 14.1667 7.08331 14.1667H6.24998C5.78974 14.1667 5.41665 13.7936 5.41665 13.3333C5.41665 12.8731 5.78974 12.5 6.24998 12.5H7.08331C7.54355 12.5 7.91665 12.8731 7.91665 13.3333Z" fill="#98A2B3"/>
<path d="M10.4166 14.1667C10.8769 14.1667 11.25 13.7936 11.25 13.3333C11.25 12.8731 10.8769 12.5 10.4166 12.5H9.58331C9.12308 12.5 8.74998 12.8731 8.74998 13.3333C8.74998 13.7936 9.12308 14.1667 9.58331 14.1667H10.4166Z" fill="#98A2B3"/>
<path fill-rule="evenodd" clip-rule="evenodd" d="M3.33331 4.16667C3.33331 3.24619 4.0795 2.5 4.99998 2.5H11.6666C12.5871 2.5 13.3333 3.24619 13.3333 4.16667V7.5H15.8333C16.7538 7.5 17.5 8.24619 17.5 9.16667V15.8333H18.3333C18.7935 15.8333 19.1666 16.2064 19.1666 16.6667C19.1666 17.1269 18.7935 17.5 18.3333 17.5H1.66665C1.20641 17.5 0.833313 17.1269 0.833313 16.6667C0.833313 16.2064 1.20641 15.8333 1.66665 15.8333H3.33331V4.16667ZM4.99998 15.8333H11.6666V4.16667H4.99998V15.8333ZM15.8333 12.5V11.6667H15.4166C14.9564 11.6667 14.5833 11.2936 14.5833 10.8333C14.5833 10.3731 14.9564 10 15.4166 10H15.8333V9.16667H13.3333V15.8333H15.8333V14.1667H15.4166C14.9564 14.1667 14.5833 13.7936 14.5833 13.3333C14.5833 12.8731 14.9564 12.5 15.4166 12.5H15.8333Z" fill="#98A2B3"/>
</svg>
