<svg width="20" height="20" viewBox="0 0 20 20" fill="none" xmlns="http://www.w3.org/2000/svg">
<path d="M6.66667 1.66666C7.1269 1.66666 7.5 2.03975 7.5 2.49999V3.74999H5.83333V2.49999C5.83333 2.03975 6.20643 1.66666 6.66667 1.66666Z" fill="#667185"/>
<path d="M12.5 4.16666H7.5V4.99999C7.5 5.46023 7.1269 5.83332 6.66667 5.83332C6.20643 5.83332 5.83333 5.46023 5.83333 4.99999V4.16666H5C3.61929 4.16666 2.5 5.28594 2.5 6.66666V7.08332H17.5V6.66666C17.5 5.28594 16.3807 4.16666 15 4.16666H14.1667V4.99999C14.1667 5.46023 13.7936 5.83332 13.3333 5.83332C12.8731 5.83332 12.5 5.46023 12.5 4.99999V4.16666Z" fill="#667185"/>
<path fill-rule="evenodd" clip-rule="evenodd" d="M2.5 8.74999V15.8333C2.5 17.214 3.61929 18.3333 5 18.3333H15C16.3807 18.3333 17.5 17.214 17.5 15.8333V8.74999H2.5ZM4.16667 15C4.16667 14.5398 4.53976 14.1667 5 14.1667H10.8333C11.2936 14.1667 11.6667 14.5398 11.6667 15C11.6667 15.4602 11.2936 15.8333 10.8333 15.8333H5C4.53976 15.8333 4.16667 15.4602 4.16667 15ZM13.3333 14.1667C12.8731 14.1667 12.5 14.5398 12.5 15C12.5 15.4602 12.8731 15.8333 13.3333 15.8333H15C15.4602 15.8333 15.8333 15.4602 15.8333 15C15.8333 14.5398 15.4602 14.1667 15 14.1667H13.3333Z" fill="#667185"/>
<path d="M14.1667 2.49999C14.1667 2.03975 13.7936 1.66666 13.3333 1.66666C12.8731 1.66666 12.5 2.03975 12.5 2.49999V3.74999H14.1667V2.49999Z" fill="#667185"/>
</svg>
