<svg width="20" height="20" viewBox="0 0 20 20" fill="none" xmlns="http://www.w3.org/2000/svg">
<path d="M5.87571 4.69671C5.55028 4.37128 5.02264 4.37128 4.6972 4.69671C4.37177 5.02215 4.37177 5.54979 4.6972 5.87523L8.82199 10L4.6972 14.1248C4.37177 14.4502 4.37177 14.9779 4.6972 15.3033C5.02264 15.6288 5.55028 15.6288 5.87571 15.3033L10.0005 11.1785L14.1253 15.3033C14.4507 15.6288 14.9784 15.6288 15.3038 15.3033C15.6292 14.9779 15.6292 14.4502 15.3038 14.1248L11.179 10L15.3038 5.87523C15.6292 5.54979 15.6292 5.02215 15.3038 4.69671C14.9784 4.37128 14.4507 4.37128 14.1253 4.69671L10.0005 8.8215L5.87571 4.69671Z" fill="black"/>
</svg>
