<svg width="20" height="20" viewBox="0 0 20 20" fill="none" xmlns="http://www.w3.org/2000/svg">
<path fill-rule="evenodd" clip-rule="evenodd" d="M14.1667 11.6667C14.1667 14.8883 11.555 17.5 8.33333 17.5C7.83384 17.5 7.34901 17.4372 6.8863 17.3191L3.25367 16.865C2.8425 16.8136 2.55674 16.4304 2.62487 16.0216L2.84711 14.6882C2.8587 14.6186 2.86014 14.5478 2.8514 14.4779L2.68088 13.1137C2.56278 12.651 2.5 12.1662 2.5 11.6667C2.5 8.445 5.11167 5.83333 8.33333 5.83333C11.555 5.83333 14.1667 8.445 14.1667 11.6667ZM5 12.5C4.53976 12.5 4.16667 12.1269 4.16667 11.6667C4.16667 11.2064 4.53976 10.8333 5 10.8333C5.46024 10.8333 5.83333 11.2064 5.83333 11.6667C5.83333 12.1269 5.46024 12.5 5 12.5ZM7.5 11.6667C7.5 12.1269 7.8731 12.5 8.33333 12.5C8.79357 12.5 9.16667 12.1269 9.16667 11.6667C9.16667 11.2064 8.79357 10.8333 8.33333 10.8333C7.8731 10.8333 7.5 11.2064 7.5 11.6667ZM11.6667 12.5C11.2064 12.5 10.8333 12.1269 10.8333 11.6667C10.8333 11.2064 11.2064 10.8333 11.6667 10.8333C12.1269 10.8333 12.5 11.2064 12.5 11.6667C12.5 12.1269 12.1269 12.5 11.6667 12.5Z" fill="#667185"/>
<path fill-rule="evenodd" clip-rule="evenodd" d="M17.4999 6.66667C17.4999 4.36548 15.6345 2.5 13.3333 2.5C11.7407 2.5 10.3568 3.39349 9.65552 4.70655C12.5863 5.25997 14.8792 7.6188 15.3342 10.5832L16.9616 10.3798C17.2553 10.3431 17.4594 10.0693 17.4108 9.77736L17.252 8.82489C17.2437 8.77523 17.2427 8.72462 17.2489 8.67466L17.3707 7.70026C17.4551 7.36976 17.4999 7.02345 17.4999 6.66667Z" fill="#667185"/>
</svg>
