<svg width="62" height="24" viewBox="0 0 62 24" fill="none" xmlns="http://www.w3.org/2000/svg">
<rect width="62" height="24" rx="4" fill="#F7F9FC"/>
<path d="M11.66 17H9.044V8.408H11.636C14.228 8.408 15.956 10.136 15.956 12.704C15.956 15.272 14.24 17 11.66 17ZM11.6 9.2H9.908V16.208H11.624C13.724 16.208 15.068 14.84 15.068 12.704C15.068 10.556 13.724 9.2 11.6 9.2ZM19.0047 17.144C17.7687 17.144 17.0367 16.448 17.0367 15.428C17.0367 14.36 17.8527 13.688 19.2087 13.58L21.1287 13.424V13.232C21.1287 12.092 20.4447 11.732 19.5927 11.732C18.5847 11.732 17.9847 12.188 17.9847 12.968H17.2287C17.2287 11.792 18.1887 11.036 19.6167 11.036C20.9607 11.036 21.9447 11.708 21.9447 13.244V17H21.2487L21.1407 15.98C20.7807 16.712 19.9887 17.144 19.0047 17.144ZM19.1967 16.472C20.4207 16.472 21.1287 15.62 21.1287 14.36V14.048L19.4127 14.18C18.3207 14.276 17.8767 14.756 17.8767 15.404C17.8767 16.112 18.4047 16.472 19.1967 16.472ZM22.8893 19.532V18.848H23.5253C24.0293 18.848 24.5333 18.812 24.8213 18.032L25.0733 17.348L22.7213 11.192H23.5973L25.4693 16.256L27.3053 11.192H28.1573L25.4933 18.332C25.1573 19.244 24.5933 19.616 23.7653 19.616C23.4173 19.616 23.1533 19.592 22.8893 19.532ZM28.5986 15.368H29.3906C29.3906 16.04 29.8946 16.46 30.7106 16.46C31.6106 16.46 32.1386 16.076 32.1386 15.452C32.1386 14.972 31.8986 14.696 31.2146 14.528L30.2186 14.276C29.2106 14.024 28.7186 13.496 28.7186 12.704C28.7186 11.684 29.5706 11.036 30.8186 11.036C32.0426 11.036 32.8346 11.708 32.8706 12.788H32.0666C32.0426 12.116 31.5746 11.72 30.7946 11.72C29.9786 11.72 29.5226 12.068 29.5226 12.692C29.5226 13.136 29.8346 13.448 30.4706 13.604L31.4666 13.856C32.4746 14.108 32.9306 14.576 32.9306 15.416C32.9306 16.46 32.0426 17.144 30.7226 17.144C29.4146 17.144 28.5986 16.448 28.5986 15.368Z" fill="#667185"/>
<path d="M39.8765 9.81876L45.0863 14.7221C45.5997 15.2053 46.4005 15.2053 46.9139 14.7221L52.1237 9.81876C52.3918 9.56642 52.4046 9.1445 52.1522 8.87639C51.8999 8.60827 51.478 8.59548 51.2098 8.84783L46.0001 13.7511L40.7903 8.84783C40.5222 8.59548 40.1003 8.60827 39.848 8.87638C39.5956 9.1445 39.6084 9.56642 39.8765 9.81876Z" fill="#667185"/>
</svg>
