<svg width="20" height="20" viewBox="0 0 20 20" fill="none" xmlns="http://www.w3.org/2000/svg">
<g clip-path="url(#clip0_1073_2472)">
<path d="M13 12C13 11.4477 12.5523 11 12 11C11.4477 11 11 11.4477 11 12C11 12.5523 11.4477 13 12 13C12.5523 13 13 12.5523 13 12Z" fill="#667185"/>
<path fill-rule="evenodd" clip-rule="evenodd" d="M5 5H19C20.6569 5 22 6.34315 22 8V16C22 17.6569 20.6569 19 19 19H5C3.34315 19 2 17.6569 2 16V8C2 6.34315 3.34315 5 5 5ZM5 6.5C4.44772 6.5 4 6.94772 4 7.5C4 8.05228 4.44772 8.5 5 8.5H7C7.55228 8.5 8 8.05228 8 7.5C8 6.94772 7.55228 6.5 7 6.5H5ZM16 7.5C16 6.94772 16.4477 6.5 17 6.5H19C19.5523 6.5 20 6.94772 20 7.5C20 8.05228 19.5523 8.5 19 8.5H17C16.4477 8.5 16 8.05228 16 7.5ZM5 15.5C4.44772 15.5 4 15.9477 4 16.5C4 17.0523 4.44772 17.5 5 17.5H7C7.55228 17.5 8 17.0523 8 16.5C8 15.9477 7.55228 15.5 7 15.5H5ZM16 16.5C16 15.9477 16.4477 15.5 17 15.5H19C19.5523 15.5 20 15.9477 20 16.5C20 17.0523 19.5523 17.5 19 17.5H17C16.4477 17.5 16 17.0523 16 16.5ZM12 9C13.6569 9 15 10.3431 15 12C15 13.6569 13.6569 15 12 15C10.3431 15 9 13.6569 9 12C9 10.3431 10.3431 9 12 9Z" fill="#667185"/>
</g>
<defs>
<clipPath id="clip0_1073_2472">
<rect width="20" height="20" fill="white"/>
</clipPath>
</defs>
</svg>
