<svg width="20" height="20" viewBox="0 0 20 20" fill="none" xmlns="http://www.w3.org/2000/svg">
<path d="M7.11168 2.93766C8.12586 2.61851 9.02811 2.35703 9.54415 2.21072C9.84434 2.12561 10.1537 2.12947 10.4518 2.22138C11.8344 2.64753 16.0106 3.96678 17.6561 4.84809L14.745 6.07374L7.11168 2.93766Z" fill="#667185"/>
<path d="M5.28805 3.53982C4.07575 3.96252 2.92606 4.41758 2.25903 4.81697C2.28133 4.82354 2.30349 4.83143 2.32542 4.84066L9.99953 8.07178L13.1205 6.75772L5.28805 3.53982Z" fill="#667185"/>
<path d="M1.57703 5.78391C1.38086 7.16612 1.5325 11.4919 1.61802 13.5173C1.64549 14.168 2.05381 14.7384 2.65849 14.9803L9.38059 17.6691C9.38701 17.6717 9.39343 17.6742 9.39987 17.6767C9.38338 17.6206 9.37453 17.5613 9.37453 17.4999V9.16491L1.84036 5.99271C1.73114 5.94673 1.64182 5.87334 1.57703 5.78391Z" fill="#667185"/>
<path d="M10.5992 17.6767C10.6056 17.6742 10.6121 17.6717 10.6186 17.6691L17.3407 14.9802C17.9454 14.7384 18.3537 14.168 18.3811 13.5173C18.4667 11.4918 18.6184 7.16595 18.4221 5.78382C18.3573 5.87329 18.268 5.94671 18.1587 5.99271L10.6245 9.16491V17.4999C10.6245 17.5613 10.6157 17.6207 10.5992 17.6767Z" fill="#667185"/>
</svg>
