<svg width="20" height="21" viewBox="0 0 20 21" fill="none" xmlns="http://www.w3.org/2000/svg">
<path d="M5.87571 5.19679C5.55028 4.87136 5.02264 4.87136 4.6972 5.19679C4.37177 5.52223 4.37177 6.04987 4.6972 6.37531L8.82199 10.5001L4.6972 14.6249C4.37177 14.9503 4.37177 15.478 4.6972 15.8034C5.02264 16.1288 5.55028 16.1288 5.87571 15.8034L10.0005 11.6786L14.1253 15.8034C14.4507 16.1288 14.9784 16.1288 15.3038 15.8034C15.6292 15.478 15.6292 14.9503 15.3038 14.6249L11.179 10.5001L15.3038 6.37531C15.6292 6.04987 15.6292 5.52223 15.3038 5.19679C14.9784 4.87136 14.4507 4.87136 14.1253 5.19679L10.0005 9.32158L5.87571 5.19679Z" fill="white"/>
</svg>
