<svg width="43" height="24" viewBox="0 0 43 24" fill="none" xmlns="http://www.w3.org/2000/svg">
<rect x="0.600098" width="42" height="24" rx="4" fill="#F7F9FC"/>
<path d="M12.9201 13.844H10.5081V17H9.6441V8.408H12.9201C14.5761 8.408 15.6201 9.488 15.6201 11.108C15.6201 12.668 14.5641 13.844 12.9201 13.844ZM12.8001 9.188H10.5081V13.064H12.7521C14.0001 13.064 14.7201 12.272 14.7201 11.096C14.7201 9.908 13.9881 9.188 12.8001 9.188ZM18.2688 17.144C17.0328 17.144 16.3008 16.448 16.3008 15.428C16.3008 14.36 17.1168 13.688 18.4728 13.58L20.3928 13.424V13.232C20.3928 12.092 19.7088 11.732 18.8568 11.732C17.8488 11.732 17.2488 12.188 17.2488 12.968H16.4928C16.4928 11.792 17.4528 11.036 18.8808 11.036C20.2248 11.036 21.2088 11.708 21.2088 13.244V17H20.5128L20.4048 15.98C20.0448 16.712 19.2528 17.144 18.2688 17.144ZM18.4608 16.472C19.6848 16.472 20.3928 15.62 20.3928 14.36V14.048L18.6768 14.18C17.5848 14.276 17.1408 14.756 17.1408 15.404C17.1408 16.112 17.6688 16.472 18.4608 16.472ZM22.4623 14.108C22.4623 12.284 23.5783 11.036 25.2703 11.036C26.6143 11.036 27.5983 11.816 27.8263 13.016H26.9983C26.7823 12.212 26.0863 11.768 25.2823 11.768C24.1063 11.768 23.2783 12.668 23.2783 14.096C23.2783 15.476 24.0463 16.4 25.2223 16.4C26.0863 16.4 26.7823 15.92 27.0103 15.176H27.8503C27.5743 16.364 26.5423 17.144 25.2223 17.144C23.5783 17.144 22.4623 15.932 22.4623 14.108ZM29.9687 17H29.1407V8.252H29.9687V14.192L32.8487 11.192H33.8927L31.6607 13.508L33.9047 17H32.9447L31.0967 14.096L29.9687 15.26V17Z" fill="#667185"/>
</svg>
