<svg width="24" height="24" viewBox="0 0 24 24" fill="none" xmlns="http://www.w3.org/2000/svg">
<path fill-rule="evenodd" clip-rule="evenodd" d="M20.5961 2.91009C19.2495 1.5635 17.0662 1.5635 15.7196 2.91009L7.19416 11.4356C6.58217 12.0475 6.18518 12.8415 6.06279 13.6983L5.81573 15.4277C5.62717 16.7476 6.75854 17.879 8.07847 17.6904L9.80784 17.4434C10.6646 17.321 11.4586 16.924 12.0706 16.312L20.5961 7.78652C21.9426 6.43993 21.9426 4.25668 20.5961 2.91009ZM17.3433 4.15061C17.907 3.76634 18.6818 3.82424 19.1818 4.3243C19.6819 4.82436 19.7398 5.59915 19.3555 6.16283L17.3433 4.15061ZM15.9112 5.54693L17.9592 7.59493L10.6564 14.8978C10.3504 15.2038 9.95339 15.4023 9.525 15.4635L7.79563 15.7105L8.04269 13.9811C8.10388 13.5527 8.30238 13.1558 8.60837 12.8498L15.9112 5.54693Z" fill="#98A2B3"/>
<path d="M6 2.0001C3.79086 2.0001 2 3.79096 2 6.0001V18.0001C2 20.2092 3.79086 22.0001 6 22.0001H18C20.2091 22.0001 22 20.2092 22 18.0001V12.0001C22 11.4478 21.5523 11.0001 21 11.0001C20.4477 11.0001 20 11.4478 20 12.0001V18.0001C20 19.1047 19.1046 20.0001 18 20.0001H6C4.89543 20.0001 4 19.1047 4 18.0001V6.0001C4 4.89553 4.89543 4.0001 6 4.0001H8.68421C9.2365 4.0001 9.68421 3.55239 9.68421 3.0001C9.68421 2.44782 9.2365 2.0001 8.68421 2.0001H6Z" fill="#98A2B3"/>
</svg>
