<svg width="20" height="20" viewBox="0 0 20 20" fill="none" xmlns="http://www.w3.org/2000/svg"> 
  <path d="M3.07454 1.66667C2.61431 1.66667 2.24121 2.03976 2.24121 2.5C2.24121 2.96024 2.61431 3.33333 3.07454 3.33333C3.68156 3.33333 4.21187 3.7744 4.32105 4.395L4.8927 7.64439C4.89764 7.67244 4.90392 7.69991 4.91148 7.72675L5.08019 8.6696C5.55154 11.3038 5.78721 12.6209 6.60229 13.5251C6.90475 13.8606 7.25945 14.1487 7.65369 14.3791C8.71612 15 10.1019 15 12.8735 15H13.2118C14.464 15 15.0901 15 15.6055 14.7803C16.0245 14.6017 16.3887 14.322 16.6632 13.9682C17.0007 13.5331 17.1411 12.9447 17.4219 11.7677C17.846 9.99007 18.0581 9.10126 17.8112 8.40617C17.6119 7.84514 17.2179 7.36769 16.6957 7.05458C16.0487 6.66667 15.1031 6.66667 13.2118 6.66667H6.41296L5.96251 4.10623C5.71533 2.7012 4.50316 1.66667 3.07454 1.66667Z" fill="#667185"/>
  <path d="M8.74959 17.2917C8.74959 17.867 8.28322 18.3333 7.70793 18.3333C7.13263 18.3333 6.66626 17.867 6.66626 17.2917C6.66626 16.7164 7.13263 16.25 7.70793 16.25C8.28322 16.25 8.74959 16.7164 8.74959 17.2917Z" fill="#667185"/>
  <path d="M15.2079 18.3333C15.7832 18.3333 16.2496 17.867 16.2496 17.2917C16.2496 16.7164 15.7832 16.25 15.2079 16.25C14.6326 16.25 14.1663 16.7164 14.1663 17.2917C14.1663 17.867 14.6326 18.3333 15.2079 18.3333Z" fill="#667185"/>
</svg>