<svg width="20" height="20" viewBox="0 0 20 20" fill="none" xmlns="http://www.w3.org/2000/svg">
<path fill-rule="evenodd" clip-rule="evenodd" d="M11.5054 2.28967C10.6661 1.47766 9.33395 1.47766 8.49458 2.28967C8.01459 2.75402 7.34717 2.97087 6.68592 2.87734C5.52956 2.71378 4.45186 3.49678 4.25008 4.64708C4.13469 5.30487 3.72221 5.87261 3.13227 6.18562C2.10062 6.73298 1.68897 7.9999 2.20186 9.04911C2.49515 9.6491 2.49515 10.3509 2.20186 10.9509C1.68897 12.0001 2.10062 13.267 3.13227 13.8143C3.72221 14.1274 4.13469 14.6951 4.25008 15.3529C4.45186 16.5032 5.52956 17.2862 6.68592 17.1226C7.34717 17.0291 8.01459 17.246 8.49458 17.7103C9.33395 18.5223 10.6661 18.5223 11.5054 17.7103C11.9854 17.246 12.6528 17.0291 13.3141 17.1226C14.4705 17.2862 15.5482 16.5032 15.7499 15.3529C15.8653 14.6951 16.2778 14.1274 16.8677 13.8143C17.8994 13.267 18.311 12.0001 17.7982 10.9509C17.5049 10.3509 17.5049 9.6491 17.7982 9.04911C18.311 7.9999 17.8994 6.73298 16.8677 6.18562C16.2778 5.87261 15.8653 5.30487 15.7499 4.64708C15.5482 3.49678 14.4705 2.71378 13.3141 2.87734C12.6528 2.97087 11.9854 2.75402 11.5054 2.28967ZM10 14.1667C12.3012 14.1667 14.1667 12.3012 14.1667 9.99998C14.1667 7.6988 12.3012 5.83332 10 5.83332C7.69882 5.83332 5.83334 7.6988 5.83334 9.99998C5.83334 12.3012 7.69882 14.1667 10 14.1667Z" fill="#667185"/>
</svg>
