<svg width="20" height="20" viewBox="0 0 20 20" fill="none" xmlns="http://www.w3.org/2000/svg">
<path d="M6.25 3.33335C6.71024 3.33335 7.08333 2.96026 7.08333 2.50002C7.08333 2.03978 6.71024 1.66669 6.25 1.66669H5C3.15905 1.66669 1.66666 3.15907 1.66666 5.00002V15C1.66666 16.841 3.15905 18.3334 5 18.3334H6.25C6.71023 18.3334 7.08333 17.9603 7.08333 17.5C7.08333 17.0398 6.71024 16.6667 6.25 16.6667H5C4.07952 16.6667 3.33333 15.9205 3.33333 15L3.33333 5.00002C3.33333 4.07955 4.07952 3.33335 5 3.33335H6.25Z" fill="black"/>
<path d="M18.9226 10.5893C19.248 10.2638 19.248 9.7362 18.9226 9.41077L15.5893 6.07743C15.2638 5.75199 14.7362 5.75199 14.4107 6.07743C14.0853 6.40287 14.0853 6.93051 14.4107 7.25594L16.3215 9.16669L6.66666 9.16669C6.20643 9.16669 5.83333 9.53978 5.83333 10C5.83333 10.4603 6.20643 10.8334 6.66666 10.8334L16.3215 10.8334L14.4107 12.7441C14.0853 13.0695 14.0853 13.5972 14.4107 13.9226C14.7362 14.248 15.2638 14.248 15.5893 13.9226L18.9226 10.5893Z" fill="black"/>
</svg>
