<svg width="32" height="32" viewBox="0 0 32 32" fill="none" xmlns="http://www.w3.org/2000/svg">
<path fill-rule="evenodd" clip-rule="evenodd" d="M9.33333 1.33325C6.38782 1.33325 4 3.72107 4 6.66658V25.3333C4 28.2788 6.38781 30.6666 9.33333 30.6666H22.6667C25.6122 30.6666 28 28.2788 28 25.3333V12.1148C28 10.8671 27.5626 9.65895 26.7638 8.70047L22.2237 3.25227C21.2104 2.03631 19.7093 1.33325 18.1265 1.33325H9.33333ZM6.66667 6.66658C6.66667 5.19383 7.86057 3.99992 9.33333 3.99992H17.3333V7.99992C17.3333 10.9454 19.7211 13.3333 22.6667 13.3333H25.3333V25.3333C25.3333 26.806 24.1394 27.9999 22.6667 27.9999H9.33333C7.86057 27.9999 6.66667 26.806 6.66667 25.3333V6.66658ZM24.9058 10.6666C24.8478 10.5769 24.7842 10.4904 24.7153 10.4076L20.1751 4.95943C20.1196 4.8928 20.0611 4.82925 20 4.76891V7.99992C20 9.47268 21.1939 10.6666 22.6667 10.6666H24.9058Z" fill="#344054"/>
<path d="M22.333 25.04C22.093 25.04 21.8663 24.96 21.6663 24.7867C20.8796 24.0933 20.4396 23.8 20.213 23.6667C20.093 23.76 19.933 23.88 19.7863 24C18.9063 24.68 18.413 25.04 17.8796 25.04C17.1463 25.04 16.0263 24.7867 15.3063 23.44L15.013 23.88C14.5463 24.5733 13.973 24.9333 13.333 24.9467C12.3463 24.9333 11.6396 24.2533 10.973 23.4267C10.5863 23.8533 10.1596 24.2933 9.69296 24.76C9.29296 25.1467 8.66629 25.1467 8.27962 24.76C7.89296 24.3733 7.89296 23.7333 8.27962 23.3467C8.89296 22.7333 9.39962 22.1867 9.82629 21.7067C9.27962 20.6933 8.74629 19.4 8.71962 18.2667C8.70629 17.2533 9.01296 16.3733 9.59962 15.7733C10.0396 15.32 10.613 15.0667 11.1996 15.0667C12.4263 15.0667 13.6796 15.44 13.6796 18.2533C13.6796 19.3067 13.213 20.4933 12.253 21.8533C12.293 21.9067 12.333 21.96 12.373 22.0133C12.8263 22.6133 13.093 22.84 13.2263 22.9333C13.253 22.8933 13.293 22.8533 13.333 22.7867L14.813 20.6C15.053 20.2533 15.4663 20.0933 15.8796 20.1867C16.2796 20.28 16.5863 20.6267 16.6396 21.0267C16.853 22.7333 17.3863 23.0133 17.7063 23.0533C17.9196 22.92 18.3063 22.6267 18.5463 22.44C19.2796 21.8667 19.6263 21.6133 20.0796 21.6133C20.653 21.6133 21.3596 21.9067 22.9596 23.32C23.373 23.68 23.413 24.32 23.053 24.7333C22.853 24.96 22.573 25.0667 22.3063 25.0667L22.333 25.04ZM11.533 17.0133C11.533 17.0133 11.3463 17.04 11.2263 17.04C11.1996 17.04 11.133 17.0667 11.053 17.1467C10.9596 17.24 10.733 17.5467 10.7463 18.2133C10.7463 18.6667 10.933 19.2533 11.173 19.84C11.613 19.0667 11.7063 18.5467 11.7063 18.2267C11.7063 17.2533 11.533 17.0267 11.533 17.0267V17.0133Z" fill="#344054"/>
<path d="M14.8802 10H9.54687C9.00021 10 8.54688 9.54667 8.54688 9C8.54688 8.45333 9.00021 8 9.54687 8H14.8802C15.4269 8 15.8802 8.45333 15.8802 9C15.8802 9.54667 15.4269 10 14.8802 10Z" fill="#344054"/>
</svg>
