<svg width="20" height="20" viewBox="0 0 20 20" fill="none" xmlns="http://www.w3.org/2000/svg">
<path fill-rule="evenodd" clip-rule="evenodd" d="M17.5 10C17.5 14.1421 14.1421 17.5 10 17.5C5.85786 17.5 2.5 14.1421 2.5 10C2.5 5.85786 5.85786 2.5 10 2.5C14.1421 2.5 17.5 5.85786 17.5 10ZM10.1168 8.45409C10.352 8.27768 10.4084 7.94825 10.2453 7.70362C10.0514 7.41275 9.63985 7.37199 9.39265 7.61919L8.92259 8.08926C8.59715 8.41469 8.06951 8.41469 7.74408 8.08926C7.41864 7.76382 7.41864 7.23618 7.74408 6.91074L8.21414 6.44068C9.20503 5.44979 10.8547 5.61314 11.6321 6.77912C12.2858 7.75975 12.0596 9.08028 11.1168 9.78743L11.0763 9.81777C10.9234 9.93249 10.8333 10.1125 10.8333 10.3037L10.8333 10.4167C10.8333 10.8769 10.4602 11.25 10 11.25C9.53976 11.25 9.16666 10.8769 9.16667 10.4167V10.3037C9.16667 9.58793 9.50367 8.91391 10.0763 8.48444L10.1168 8.45409ZM9.16667 12.9167C9.16667 13.3769 9.53976 13.75 10 13.75C10.4602 13.75 10.8333 13.3769 10.8333 12.9167C10.8333 12.4564 10.4602 12.0833 10 12.0833C9.53976 12.0833 9.16667 12.4564 9.16667 12.9167Z" fill="#667185"/>
</svg>
