<svg width="31" height="32" viewBox="0 0 31 32" fill="none" xmlns="http://www.w3.org/2000/svg">
<path d="M9.04164 19.2292C8.44717 19.2292 7.96525 18.7473 7.96525 18.1528C7.96525 17.5583 8.44717 17.0764 9.04164 17.0764C9.63611 17.0764 10.118 17.5583 10.118 18.1528C10.118 18.7473 9.63611 19.2292 9.04164 19.2292Z" fill="#667185"/>
<path d="M12.2708 18.1528C12.2708 18.7473 12.7527 19.2292 13.3472 19.2292C13.9417 19.2292 14.4236 18.7473 14.4236 18.1528C14.4236 17.5583 13.9417 17.0764 13.3472 17.0764C12.7527 17.0764 12.2708 17.5583 12.2708 18.1528Z" fill="#667185"/>
<path d="M17.6528 19.2292C17.0583 19.2292 16.5764 18.7473 16.5764 18.1528C16.5764 17.5583 17.0583 17.0764 17.6528 17.0764C18.2472 17.0764 18.7291 17.5583 18.7291 18.1528C18.7291 18.7473 18.2472 19.2292 17.6528 19.2292Z" fill="#667185"/>
<path fill-rule="evenodd" clip-rule="evenodd" d="M24.6256 17.5586L21.9544 17.8925C21.957 17.979 21.9583 18.0657 21.9583 18.1528C21.9583 22.9086 18.103 26.7639 13.3472 26.7639C12.6358 26.7639 11.9431 26.6774 11.2797 26.5138L6.65245 25.9354C5.51438 25.7932 4.72346 24.7323 4.91202 23.601L5.19585 21.898L4.98614 20.2202C4.82259 19.5569 4.73608 18.8642 4.73608 18.1528C4.73608 13.397 8.59141 9.54167 13.3472 9.54167C13.4695 9.54167 13.5912 9.54422 13.7123 9.54927C14.5968 7.03739 16.9896 5.23611 19.8055 5.23611C23.3724 5.23611 26.2639 8.12761 26.2639 11.6944C26.2639 12.2213 26.2006 12.7347 26.0807 13.2271L25.9386 14.3632L26.134 15.5355C26.2974 16.5159 25.612 17.4354 24.6256 17.5586ZM19.8055 7.38889C22.1834 7.38889 24.1111 9.31656 24.1111 11.6944C24.1111 12.0648 24.0646 12.4227 23.9776 12.7633L23.9609 12.8289L23.7952 14.1546C23.7742 14.3224 23.7777 14.4923 23.8055 14.6591L23.9414 15.4746L21.6228 15.7645C20.8199 12.9775 18.6474 10.7709 15.8809 9.92047C16.557 8.42715 18.061 7.38889 19.8055 7.38889ZM13.3472 11.6944C9.78036 11.6944 6.88886 14.5859 6.88886 18.1528C6.88886 18.7074 6.95854 19.2443 7.08906 19.7557L7.10579 19.8212L7.33444 21.6504C7.35864 21.844 7.35464 22.0401 7.32257 22.2325L7.05854 23.8167L11.6788 24.3942L11.7443 24.4109C12.2557 24.5414 12.7925 24.6111 13.3472 24.6111C16.914 24.6111 19.8055 21.7196 19.8055 18.1528C19.8055 14.5859 16.914 11.6944 13.3472 11.6944Z" fill="#667185"/>
</svg>
